<svg width="24" height="24" viewBox="0 0 24 24" fill="none" xmlns="http://www.w3.org/2000/svg">
<path fill-rule="evenodd" clip-rule="evenodd" d="M23.2735 19.563C22.5334 19.8315 21.0718 20.388 19.3912 17.409C17.7106 14.433 15.4889 15.1245 15.4889 15.1245C15.3644 15.147 15.2585 15.1905 15.1482 15.2295C12.6402 11.487 5.58721 3.336 4.96593 2.6835C4.0741 1.7505 2.57675 0.874501 1.32418 2.25C0.146048 3.543 0.750144 5.2305 1.64197 6.165C2.26897 6.822 10.0907 14.25 13.6609 16.869C13.6021 17.0313 13.5654 17.2015 13.5521 17.3745C13.5521 22.8435 18.8902 22.554 19.9939 22.3425C21.9622 21.969 24.0136 19.2975 23.2735 19.563V19.563Z" fill="#F5F5F5"/>
<path fill-rule="evenodd" clip-rule="evenodd" d="M8.64348 16.095L8.31853 17.223L9.01424 17.952L3.55877 20.436L2.48514 19.3575L4.94876 13.917L4.923 14.976L6.35164 14.955L7.57272 13.6875C6.81402 13.0125 6.05818 12.3285 5.3367 11.667L4.14283 12.9195C4.14283 12.9195 0.833181 20.8995 0.608434 21.5445C0.429496 22.0545 1.04648 22.701 1.47306 22.482C2.16019 22.1265 9.68992 18.702 9.68992 18.702L11.3619 16.944C10.7048 16.4072 10.0553 15.8601 9.41363 15.303L8.64348 16.095Z" fill="#F5F5F5"/>
<path fill-rule="evenodd" clip-rule="evenodd" d="M17.997 2.88L19.7992 4.734L13.744 10.8945C14.2851 11.5845 14.7947 12.2475 15.2485 12.861L21.3481 6.4485C22.0667 5.6955 22.1068 4.6095 21.3367 3.804L18.4665 0.818999C17.6949 0.0134993 16.4867 -0.0285007 15.7695 0.722999L10.2139 6.555C10.8523 7.32 11.5151 8.1225 12.1664 8.9265L17.997 2.88V2.88Z" fill="#F5F5F5"/>
</svg>
