<svg width="25" height="24" viewBox="0 0 25 24" fill="none" xmlns="http://www.w3.org/2000/svg">
<path d="M24.5125 6C24.4656 7.625 23.8602 9.03125 22.6961 10.2188C21.532 11.4063 20.1375 12 18.5125 12C18.0594 12 17.5906 11.9375 17.1063 11.8125C17.2313 12.2969 17.493 12.6992 17.8914 13.0195C18.2899 13.3398 18.7469 13.5 19.2625 13.5L21.5125 15.75L23.4344 17.7422C24.1531 18.4609 24.5125 19.3242 24.5125 20.332C24.5125 21.3398 24.1531 22.1992 23.4344 22.9102C22.7156 23.6211 21.8524 23.9766 20.8445 23.9766C19.8367 23.9766 18.9734 23.625 18.2547 22.9219L16.2625 21L14.0125 18.75C14.0125 18.125 13.7938 17.5937 13.3563 17.1562C12.9188 16.7188 12.3875 16.5 11.7625 16.5L11.5984 16.3359V16.3125L5.80939 23.7891C5.65314 23.9297 4.97736 24 3.78204 24C2.58673 24 1.91876 23.9297 1.77814 23.7891L0.72345 22.7578C0.582825 22.6016 0.512512 21.9258 0.512512 20.7305C0.512512 19.5352 0.582825 18.8594 0.72345 18.7031L10.5672 11.0859L5.5047 6H2.76251L0.512512 1.5L2.01251 0L6.51251 2.25V4.96875L11.7156 10.1953L13.2625 9C13.2625 8.98437 13.2703 8.97656 13.2859 8.97656H13.3094C12.7781 8.03906 12.5125 7.04688 12.5125 6C12.5125 4.375 13.1024 2.97656 14.282 1.80469C15.4617 0.632812 16.8719 0.03125 18.5125 0V0.890625L16.5906 2.71875C15.8719 3.4375 15.5125 4.30078 15.5125 5.30859C15.5125 6.31641 15.8719 7.17969 16.5906 7.89844C17.3094 8.61719 18.1766 8.97656 19.1922 8.97656C20.2078 8.97656 21.075 8.61719 21.7938 7.89844L23.5984 6H24.5125ZM3.51251 19.5C3.09064 19.5 2.73517 19.6445 2.44611 19.9336C2.15704 20.2227 2.01251 20.5742 2.01251 20.9883C2.01251 21.4023 2.15704 21.7578 2.44611 22.0547C2.73517 22.3516 3.09064 22.5 3.51251 22.5C3.93439 22.5 4.28986 22.3516 4.57892 22.0547C4.86798 21.7578 5.01251 21.4023 5.01251 20.9883C5.01251 20.5742 4.86798 20.2227 4.57892 19.9336C4.28986 19.6445 3.93439 19.5 3.51251 19.5Z" fill="#F5F5F5"/>
</svg>
