<svg width="25" height="24" viewBox="0 0 25 24" fill="none" xmlns="http://www.w3.org/2000/svg">
<path d="M16.41 16C18.6191 16 20.41 14.2091 20.41 12C20.41 9.79086 18.6191 8 16.41 8C14.2008 8 12.41 9.79086 12.41 12C12.41 14.2091 14.2008 16 16.41 16Z" fill="#19BCFE"/>
<path fill-rule="evenodd" clip-rule="evenodd" d="M8.40997 24C9.47084 24 10.4883 23.5786 11.2384 22.8284C11.9885 22.0783 12.41 21.0609 12.41 20V16H8.40997C7.34911 16 6.33169 16.4214 5.58155 17.1716C4.8314 17.9217 4.40997 18.9391 4.40997 20C4.40997 21.0609 4.8314 22.0783 5.58155 22.8284C6.33169 23.5786 7.34911 24 8.40997 24V24Z" fill="#09CF83"/>
<path fill-rule="evenodd" clip-rule="evenodd" d="M8.40997 16H12.41V8H8.40997C7.34911 8 6.33169 8.42143 5.58155 9.17157C4.8314 9.92172 4.40997 10.9391 4.40997 12C4.40997 13.0609 4.8314 14.0783 5.58155 14.8284C6.33169 15.5786 7.34911 16 8.40997 16V16Z" fill="#A259FF"/>
<path fill-rule="evenodd" clip-rule="evenodd" d="M8.40997 8H12.41V0H8.40997C7.34911 0 6.33169 0.421427 5.58155 1.17157C4.8314 1.92172 4.40997 2.93913 4.40997 4C4.40997 5.06087 4.8314 6.07828 5.58155 6.82843C6.33169 7.57857 7.34911 8 8.40997 8V8Z" fill="#F24E1E"/>
<path fill-rule="evenodd" clip-rule="evenodd" d="M16.41 8H12.41V0H16.41C17.4708 0 18.4883 0.421427 19.2384 1.17157C19.9885 1.92172 20.41 2.93913 20.41 4C20.41 5.06087 19.9885 6.07828 19.2384 6.82843C18.4883 7.57857 17.4708 8 16.41 8Z" fill="#FF7262"/>
</svg>
