<svg width="25" height="24" viewBox="0 0 25 24" fill="none" xmlns="http://www.w3.org/2000/svg">
<path fill-rule="evenodd" clip-rule="evenodd" d="M12.6084 0C5.97843 0 0.608429 5.37 0.608429 12C0.608429 17.31 4.04343 21.795 8.81343 23.385C9.41343 23.49 9.63843 23.13 9.63843 22.815C9.63843 22.53 9.62343 21.585 9.62343 20.58C6.60843 21.135 5.82843 19.845 5.58843 19.17C5.45343 18.825 4.86843 17.76 4.35843 17.475C3.93843 17.25 3.33843 16.695 4.34343 16.68C5.28843 16.665 5.96343 17.55 6.18843 17.91C7.26843 19.725 8.99343 19.215 9.68343 18.9C9.78843 18.12 10.1034 17.595 10.4484 17.295C7.77843 16.995 4.98843 15.96 4.98843 11.37C4.98843 10.065 5.45343 8.985 6.21843 8.145C6.09843 7.845 5.67843 6.615 6.33843 4.965C6.33843 4.965 7.34343 4.65 9.63843 6.195C10.5984 5.925 11.6184 5.79 12.6384 5.79C13.6584 5.79 14.6784 5.925 15.6384 6.195C17.9334 4.635 18.9384 4.965 18.9384 4.965C19.5984 6.615 19.1784 7.845 19.0584 8.145C19.8234 8.985 20.2884 10.05 20.2884 11.37C20.2884 15.975 17.4834 16.995 14.8134 17.295C15.2484 17.67 15.6234 18.39 15.6234 19.515C15.6234 21.12 15.6084 22.41 15.6084 22.815C15.6084 23.13 15.8334 23.505 16.4334 23.385C18.8156 22.5807 20.8856 21.0497 22.3521 19.0074C23.8186 16.965 24.6077 14.5143 24.6084 12C24.6084 5.37 19.2384 0 12.6084 0Z" fill="#F5F5F5"/>
</svg>
