<svg width="25" height="24" viewBox="0 0 25 24" fill="none" xmlns="http://www.w3.org/2000/svg">
<path d="M12.771 0.191251C12.402 0.185326 12.0356 0.253497 11.6934 0.391727C11.3513 0.529958 11.0403 0.735438 10.779 0.996001L1.9545 10.0312C-1.389 13.371 4.11825 13.0935 6.1065 14.3595C7.02825 14.961 3.153 15.7305 3.94275 16.5232C4.716 17.316 8.595 18.0427 9.3645 18.816C10.1378 19.605 7.80225 20.4412 8.57175 21.234C9.32175 22.0267 11.1225 21.2767 11.4427 23.0737C11.6775 24.402 14.7435 23.742 16.1145 22.605C16.9703 21.8745 14.634 21.8745 15.4073 21.0817C17.337 19.1325 19.0478 20.2065 19.755 18.4057C20.142 17.445 16.8413 16.7572 17.7195 16.1362C19.821 14.6595 27.5318 13.9095 23.9775 10.3552L14.829 0.996001C14.2712 0.473852 13.5343 0.185781 12.7702 0.191251H12.771ZM12.8452 1.05075C13.3762 1.0545 13.908 1.25025 14.2905 1.63275L17.7825 5.1915C18.1065 5.51175 18.1065 6.17625 17.9115 6.3675L16.1768 4.9575L15.8333 7.03575L14.4 6.2625L12.0638 7.73925L11.2943 4.638L10.0522 7.3335L6.94275 7.314C6.345 7.314 6.43125 6.693 7.05225 6.072C8.271 4.7205 10.65 2.4315 11.4 1.63875C11.787 1.2405 12.3142 1.04925 12.8452 1.053V1.05075ZM22.6035 17.3242C21.861 17.3512 21.1073 17.7225 20.9123 18.4065C20.9123 18.8557 24.4043 19.1137 24.213 18.3007C24.072 17.613 23.346 17.2965 22.6035 17.3242V17.3242ZM7.2555 19.2697C6.2475 19.3282 5.16975 20.0625 6.02475 20.7817C6.81375 21.4695 8.01675 20.6332 8.4 19.6725C8.1615 19.356 7.71675 19.2427 7.25925 19.2742H7.2555V19.2697ZM20.4863 19.3477C19.4978 20.2462 20.6543 21.1912 21.6188 20.5702C21.8768 20.3947 21.5993 19.5622 20.4863 19.3477Z" fill="black"/>
</svg>
