<svg width="25" height="24" viewBox="0 0 25 24" fill="none" xmlns="http://www.w3.org/2000/svg">
<path d="M20.4764 2.625H4.74046C3.90843 2.625 3.23343 3.3 3.23343 4.13203V19.868C3.23343 20.7 3.90843 21.375 4.74046 21.375H20.4764C21.3084 21.375 21.9834 20.7 21.9834 19.868V4.13203C21.9834 3.3 21.3084 2.625 20.4764 2.625V2.625ZM20.4764 19.875C9.98109 19.8727 4.73343 19.8703 4.73343 19.868C4.73577 9.37266 4.73812 4.125 4.74046 4.125C15.2358 4.12734 20.4834 4.12969 20.4834 4.13203C20.4811 14.6273 20.4787 19.875 20.4764 19.875ZM6.01312 9.65391H8.79515V18.6023H6.01312V9.65391ZM7.4053 8.43047C8.29359 8.43047 9.0178 7.70859 9.0178 6.81797C9.0178 6.60621 8.9761 6.39653 8.89506 6.20089C8.81402 6.00525 8.69525 5.82749 8.54551 5.67776C8.39578 5.52802 8.21802 5.40925 8.02238 5.32821C7.82674 5.24718 7.61706 5.20547 7.4053 5.20547C7.19355 5.20547 6.98386 5.24718 6.78823 5.32821C6.59259 5.40925 6.41483 5.52802 6.26509 5.67776C6.11536 5.82749 5.99658 6.00525 5.91555 6.20089C5.83451 6.39653 5.7928 6.60621 5.7928 6.81797C5.79046 7.70859 6.51234 8.43047 7.4053 8.43047ZM13.3186 14.175C13.3186 13.0078 13.5412 11.8781 14.9873 11.8781C16.4123 11.8781 16.4334 13.2117 16.4334 14.25V18.6023H19.2131V13.6945C19.2131 11.2852 18.6928 9.43125 15.878 9.43125C14.5256 9.43125 13.6186 10.1742 13.2459 10.8773H13.2084V9.65391H10.5389V18.6023H13.3186V14.175Z" fill="#F5F5F5"/>
</svg>
