<svg width="29" height="24" viewBox="0 0 29 24" fill="none" xmlns="http://www.w3.org/2000/svg">
<path d="M21.1622 0.976971L21.9756 3.07642L22.5208 2.62836C22.5208 2.62836 22.4364 2.34062 22.5208 2.04109C22.2116 1.7947 21.1622 0.976971 21.1622 0.976971H21.1622Z" fill="#FF7000"/>
<mask id="path-2-inside-1_3_23" fill="white">
<path d="M10.7233 14.4957C10.6864 14.4882 10.6491 14.4811 10.6138 14.472C10.5608 14.4582 10.5095 14.4427 10.4597 14.4258C10.41 14.4088 10.3617 14.3905 10.3148 14.3709C10.2678 14.3513 10.2221 14.3305 10.1775 14.3087C10.1329 14.2869 10.0893 14.2641 10.0467 14.2406C9.96125 14.1937 9.87916 14.1439 9.79884 14.0934C9.71851 14.0429 9.63989 13.9917 9.56118 13.9418C9.48245 13.8919 9.40364 13.8432 9.32306 13.7979C9.28277 13.7753 9.24207 13.7535 9.20067 13.7328C9.15926 13.7121 9.11714 13.6925 9.07418 13.6743C9.03123 13.6561 8.98749 13.6391 8.94255 13.6238C8.89762 13.6086 8.85161 13.5949 8.80425 13.5831C8.8771 13.5278 8.94182 13.4755 8.99951 13.4262C9.05719 13.3769 9.10779 13.3306 9.15204 13.2876C9.19629 13.2445 9.2343 13.2046 9.26686 13.1681C9.29941 13.1315 9.32653 13.0984 9.34911 13.0687C9.37169 13.039 9.38975 13.0128 9.40409 12.9901C9.41844 12.9674 9.42898 12.9482 9.43681 12.9328C9.45248 12.9021 9.45696 12.8862 9.45696 12.8862C9.41123 12.8968 9.3642 12.9055 9.31639 12.9122C9.26858 12.9189 9.21991 12.9237 9.17067 12.9269C9.12143 12.9301 9.07163 12.9317 9.02162 12.9317C8.97161 12.9318 8.92133 12.9303 8.87121 12.9278C8.82108 12.9252 8.77112 12.9215 8.72155 12.9168C8.67198 12.912 8.62283 12.9063 8.57447 12.8998C8.47774 12.8867 8.38415 12.8705 8.29621 12.853C8.20827 12.8355 8.12605 12.8166 8.05218 12.7982C7.97832 12.7798 7.91281 12.7618 7.85829 12.746C7.74925 12.7145 7.6841 12.6915 7.6841 12.6915C7.71224 12.6754 7.73997 12.6582 7.76711 12.64C7.79425 12.6218 7.8208 12.6027 7.84693 12.5826C7.87307 12.5625 7.89873 12.5413 7.92388 12.5194C7.94903 12.4976 7.97364 12.4749 7.9978 12.4514C8.04613 12.4045 8.09256 12.3545 8.13701 12.3022C8.18145 12.2499 8.22392 12.1954 8.26455 12.1391C8.30518 12.0828 8.34401 12.0248 8.38089 11.9658C8.41776 11.9068 8.45266 11.8469 8.48586 11.7866C8.51905 11.7263 8.5505 11.6657 8.58008 11.6054C8.60965 11.5452 8.63736 11.4852 8.66339 11.4263C8.68941 11.3673 8.71371 11.3094 8.73624 11.2531C8.75058 11.2173 8.76313 11.1836 8.77608 11.1494C6.03771 12.2197 2.02462 12.9081 0.359985 10.6546C0.359985 10.6546 4.2415 17.9677 10.7233 14.4957V14.4957Z"/>
</mask>
<path d="M10.7233 14.4957C10.6864 14.4882 10.6491 14.4811 10.6138 14.472C10.5608 14.4582 10.5095 14.4427 10.4597 14.4258C10.41 14.4088 10.3617 14.3905 10.3148 14.3709C10.2678 14.3513 10.2221 14.3305 10.1775 14.3087C10.1329 14.2869 10.0893 14.2641 10.0467 14.2406C9.96125 14.1937 9.87916 14.1439 9.79884 14.0934C9.71851 14.0429 9.63989 13.9917 9.56118 13.9418C9.48245 13.8919 9.40364 13.8432 9.32306 13.7979C9.28277 13.7753 9.24207 13.7535 9.20067 13.7328C9.15926 13.7121 9.11714 13.6925 9.07418 13.6743C9.03123 13.6561 8.98749 13.6391 8.94255 13.6238C8.89762 13.6086 8.85161 13.5949 8.80425 13.5831C8.8771 13.5278 8.94182 13.4755 8.99951 13.4262C9.05719 13.3769 9.10779 13.3306 9.15204 13.2876C9.19629 13.2445 9.2343 13.2046 9.26686 13.1681C9.29941 13.1315 9.32653 13.0984 9.34911 13.0687C9.37169 13.039 9.38975 13.0128 9.40409 12.9901C9.41844 12.9674 9.42898 12.9482 9.43681 12.9328C9.45248 12.9021 9.45696 12.8862 9.45696 12.8862C9.41123 12.8968 9.3642 12.9055 9.31639 12.9122C9.26858 12.9189 9.21991 12.9237 9.17067 12.9269C9.12143 12.9301 9.07163 12.9317 9.02162 12.9317C8.97161 12.9318 8.92133 12.9303 8.87121 12.9278C8.82108 12.9252 8.77112 12.9215 8.72155 12.9168C8.67198 12.912 8.62283 12.9063 8.57447 12.8998C8.47774 12.8867 8.38415 12.8705 8.29621 12.853C8.20827 12.8355 8.12605 12.8166 8.05218 12.7982C7.97832 12.7798 7.91281 12.7618 7.85829 12.746C7.74925 12.7145 7.6841 12.6915 7.6841 12.6915C7.71224 12.6754 7.73997 12.6582 7.76711 12.64C7.79425 12.6218 7.8208 12.6027 7.84693 12.5826C7.87307 12.5625 7.89873 12.5413 7.92388 12.5194C7.94903 12.4976 7.97364 12.4749 7.9978 12.4514C8.04613 12.4045 8.09256 12.3545 8.13701 12.3022C8.18145 12.2499 8.22392 12.1954 8.26455 12.1391C8.30518 12.0828 8.34401 12.0248 8.38089 11.9658C8.41776 11.9068 8.45266 11.8469 8.48586 11.7866C8.51905 11.7263 8.5505 11.6657 8.58008 11.6054C8.60965 11.5452 8.63736 11.4852 8.66339 11.4263C8.68941 11.3673 8.71371 11.3094 8.73624 11.2531C8.75058 11.2173 8.76313 11.1836 8.77608 11.1494C6.03771 12.2197 2.02462 12.9081 0.359985 10.6546C0.359985 10.6546 4.2415 17.9677 10.7233 14.4957V14.4957Z" fill="white"/>
<path d="M10.7233 14.4957L10.5232 15.4755L11.7233 15.7205V14.4957H10.7233ZM10.6138 14.472L10.8645 13.5039L10.8644 13.5039L10.6138 14.472ZM10.4597 14.4258L10.7816 13.479L10.7815 13.479L10.4597 14.4258ZM10.3148 14.3709L10.7002 13.4482L10.7 13.4481L10.3148 14.3709ZM10.1775 14.3087L9.7384 15.2071L9.73855 15.2072L10.1775 14.3087ZM10.0467 14.2406L10.5283 13.3643L10.5282 13.3642L10.0467 14.2406ZM9.79884 14.0934L9.26665 14.94L9.26667 14.9401L9.79884 14.0934ZM9.56118 13.9418L9.02547 14.7862L9.02548 14.7862L9.56118 13.9418ZM9.32306 13.7979L9.81286 12.9261L9.81276 12.926L9.32306 13.7979ZM9.20067 13.7328L9.64778 12.8383L9.64773 12.8383L9.20067 13.7328ZM9.07418 13.6743L9.46506 12.7538L9.4649 12.7538L9.07418 13.6743ZM8.94255 13.6238L8.62077 14.5707L8.62079 14.5707L8.94255 13.6238ZM8.80425 13.5831L8.19943 12.7867L6.53704 14.0493L8.56272 14.5535L8.80425 13.5831ZM8.99951 13.4262L8.34973 12.666L8.34971 12.6661L8.99951 13.4262ZM9.15204 13.2876L8.45485 12.5707L8.45483 12.5707L9.15204 13.2876ZM9.34911 13.0687L8.55286 12.4637L8.55285 12.4637L9.34911 13.0687ZM9.40409 12.9901L10.2492 13.5247L10.2494 13.5244L9.40409 12.9901ZM9.43681 12.9328L10.3279 13.3867L10.3279 13.3866L9.43681 12.9328ZM9.45696 12.8862L10.4194 13.1575L10.8789 11.5275L9.22973 11.9123L9.45696 12.8862ZM9.17067 12.9269L9.10652 11.929L9.10593 11.929L9.17067 12.9269ZM8.87121 12.9278L8.81865 13.9264L8.82214 13.9266L8.87121 12.9278ZM8.72155 12.9168L8.62562 13.9122L8.6262 13.9122L8.72155 12.9168ZM8.29621 12.853L8.10104 13.8338L8.1011 13.8338L8.29621 12.853ZM8.05218 12.7982L8.29402 11.8278L8.29399 11.8278L8.05218 12.7982ZM7.85829 12.746L7.57999 13.7065L7.58001 13.7065L7.85829 12.746ZM7.6841 12.6915L7.1871 11.8238L5.29152 12.9094L7.35205 13.6348L7.6841 12.6915ZM7.76711 12.64L8.32406 13.4706L8.32412 13.4705L7.76711 12.64ZM7.84693 12.5826L7.23722 11.79L7.2369 11.7902L7.84693 12.5826ZM7.92388 12.5194L7.2677 11.7648L7.26755 11.765L7.92388 12.5194ZM8.13701 12.3022L8.8989 12.9499L8.89891 12.9499L8.13701 12.3022ZM8.26455 12.1391L9.07542 12.7243L9.07542 12.7243L8.26455 12.1391ZM8.38089 11.9658L9.22871 12.4961L9.22872 12.4961L8.38089 11.9658ZM8.48586 11.7866L7.60983 11.3043L7.60982 11.3044L8.48586 11.7866ZM8.58008 11.6054L9.47787 12.0459L9.47788 12.0458L8.58008 11.6054ZM8.73624 11.2531L7.80795 10.8813L7.80794 10.8813L8.73624 11.2531ZM8.77608 11.1494L9.71152 11.5028L10.5064 9.39937L8.41204 10.218L8.77608 11.1494ZM0.359985 10.6546L1.16432 10.0605L-0.523309 11.1234L0.359985 10.6546ZM10.7233 14.4957H11.7233V12.8256L10.2511 13.6142L10.7233 14.4957ZM10.9233 13.5159C10.9129 13.5138 10.901 13.5114 10.8937 13.5099C10.8851 13.5082 10.8789 13.5069 10.8737 13.5058C10.8626 13.5035 10.8611 13.503 10.8645 13.5039L10.363 15.44C10.4311 15.4576 10.5061 15.472 10.5232 15.4755L10.9233 13.5159ZM10.8644 13.5039C10.8375 13.4969 10.81 13.4886 10.7816 13.479L10.1378 15.3725C10.2089 15.3967 10.2841 15.4196 10.3631 15.44L10.8644 13.5039ZM10.7815 13.479C10.7535 13.4694 10.7265 13.4592 10.7002 13.4482L9.9293 15.2936C9.99699 15.3219 10.0664 15.3483 10.1379 15.3725L10.7815 13.479ZM10.7 13.4481C10.6731 13.4369 10.6454 13.4243 10.6165 13.4102L9.73855 15.2072C9.79889 15.2366 9.8625 15.2658 9.92951 15.2937L10.7 13.4481ZM10.6166 13.4102C10.5877 13.3961 10.5584 13.3808 10.5283 13.3643L9.56505 15.117C9.62032 15.1474 9.67808 15.1776 9.7384 15.2071L10.6166 13.4102ZM10.5282 13.3642C10.4668 13.3305 10.4031 13.2921 10.331 13.2468L9.26667 14.9401C9.35524 14.9957 9.45565 15.0569 9.56508 15.1171L10.5282 13.3642ZM10.331 13.2468C10.2466 13.1937 10.1953 13.1598 10.0969 13.0974L9.02548 14.7862C9.08448 14.8236 9.19041 14.8921 9.26665 14.94L10.331 13.2468ZM10.0969 13.0974C10.0127 13.044 9.91644 12.9842 9.81286 12.9261L8.83326 14.6697C8.89084 14.7021 8.95224 14.7397 9.02547 14.7862L10.0969 13.0974ZM9.81276 12.926C9.76106 12.897 9.706 12.8674 9.64778 12.8383L8.75355 14.6272C8.77814 14.6395 8.80448 14.6536 8.83336 14.6698L9.81276 12.926ZM9.64773 12.8383C9.58878 12.8088 9.52793 12.7805 9.46506 12.7538L8.68331 14.5947C8.70635 14.6045 8.72974 14.6153 8.7536 14.6273L9.64773 12.8383ZM9.4649 12.7538C9.40225 12.7272 9.33541 12.7012 9.26431 12.677L8.62079 14.5707C8.63957 14.577 8.66021 14.5849 8.68347 14.5948L9.4649 12.7538ZM9.26433 12.677C9.19479 12.6534 9.12199 12.6317 9.04579 12.6127L8.56272 14.5535C8.58123 14.5581 8.60045 14.5638 8.62077 14.5707L9.26433 12.677ZM9.40908 14.3795C9.49641 14.3131 9.57619 14.2488 9.6493 14.1863L8.34971 12.6661C8.30746 12.7022 8.25779 12.7424 8.19943 12.7867L9.40908 14.3795ZM9.64928 14.1863C9.72212 14.124 9.78864 14.0634 9.84925 14.0044L8.45483 12.5707C8.42694 12.5978 8.39226 12.6297 8.34973 12.666L9.64928 14.1863ZM9.84922 14.0045C9.91015 13.9452 9.9646 13.8881 10.0133 13.8336L8.52046 12.5026C8.50401 12.521 8.48244 12.5439 8.45485 12.5707L9.84922 14.0045ZM10.0133 13.8336C10.0622 13.7786 10.1061 13.7254 10.1454 13.6737L8.55285 12.4637C8.54697 12.4715 8.53661 12.4844 8.52046 12.5026L10.0133 13.8336ZM10.1454 13.6737C10.1838 13.623 10.2184 13.5734 10.2492 13.5247L8.55897 12.4555C8.5611 12.4521 8.55956 12.4549 8.55286 12.4637L10.1454 13.6737ZM10.2494 13.5244C10.2819 13.4729 10.3076 13.4266 10.3279 13.3867L8.54574 12.479C8.55041 12.4698 8.55497 12.4618 8.55883 12.4557L10.2494 13.5244ZM10.3279 13.3866C10.3499 13.3435 10.3681 13.3027 10.3832 13.2643C10.3908 13.2451 10.3975 13.2266 10.4036 13.2088C10.4066 13.1999 10.4094 13.1911 10.412 13.1826C10.4134 13.1783 10.4146 13.1741 10.4159 13.1699C10.4165 13.1678 10.4171 13.1657 10.4177 13.1637C10.418 13.1626 10.4183 13.1616 10.4186 13.1606C10.4187 13.1601 10.4189 13.1595 10.419 13.159C10.4191 13.1588 10.4192 13.1585 10.4192 13.1583C10.4193 13.1581 10.4193 13.1579 10.4193 13.1579C10.4194 13.1577 10.4194 13.1575 9.45696 12.8862C8.49447 12.6148 8.49453 12.6146 8.49458 12.6145C8.4946 12.6144 8.49465 12.6142 8.49469 12.6141C8.49476 12.6138 8.49483 12.6136 8.49491 12.6133C8.49505 12.6128 8.49519 12.6123 8.49534 12.6118C8.49563 12.6108 8.49592 12.6098 8.49621 12.6088C8.49678 12.6068 8.49736 12.6048 8.49795 12.6028C8.49911 12.5989 8.50028 12.595 8.50145 12.5912C8.50379 12.5837 8.50613 12.5764 8.50848 12.5695C8.51316 12.5556 8.5178 12.543 8.52227 12.5316C8.53123 12.5089 8.53942 12.4914 8.54572 12.479L10.3279 13.3866ZM9.22973 11.9123C9.21478 11.9158 9.19726 11.9191 9.17737 11.9219L9.45541 13.9025C9.53115 13.8919 9.60768 13.8779 9.68419 13.86L9.22973 11.9123ZM9.17737 11.9219C9.1568 11.9248 9.13326 11.9272 9.10652 11.929L9.23482 13.9248C9.30657 13.9202 9.38035 13.913 9.45541 13.9025L9.17737 11.9219ZM9.10593 11.929C9.07917 11.9307 9.05044 11.9317 9.01986 11.9317L9.02338 13.9317C9.09282 13.9316 9.16368 13.9295 9.23542 13.9248L9.10593 11.929ZM9.01986 11.9317C8.9913 11.9318 8.95866 11.9309 8.92027 11.929L8.82214 13.9266C8.88401 13.9297 8.95192 13.9319 9.02338 13.9317L9.01986 11.9317ZM8.92377 11.9292C8.88733 11.9273 8.85165 11.9246 8.8169 11.9213L8.6262 13.9122C8.6906 13.9184 8.75484 13.9231 8.81865 13.9264L8.92377 11.9292ZM8.81748 11.9214C8.78004 11.9178 8.74358 11.9136 8.7084 11.9088L8.44053 13.8908C8.50208 13.8991 8.56391 13.9062 8.62562 13.9122L8.81748 11.9214ZM8.7084 11.9088C8.63546 11.8989 8.56252 11.8864 8.49131 11.8722L8.1011 13.8338C8.20578 13.8546 8.32002 13.8745 8.44053 13.8908L8.7084 11.9088ZM8.49138 11.8722C8.42156 11.8583 8.35508 11.8431 8.29402 11.8278L7.81034 13.7685C7.89702 13.7901 7.99499 13.8127 8.10104 13.8338L8.49138 11.8722ZM8.29399 11.8278C8.23302 11.8126 8.17969 11.798 8.13658 11.7855L7.58001 13.7065C7.64594 13.7256 7.72361 13.7469 7.81037 13.7685L8.29399 11.8278ZM8.1366 11.7856C8.09299 11.7729 8.05935 11.7624 8.03823 11.7555C8.0277 11.7521 8.02037 11.7497 8.01656 11.7484C8.01466 11.7477 8.01364 11.7474 8.01356 11.7473C8.01352 11.7473 8.01371 11.7474 8.01414 11.7476C8.01435 11.7476 8.01463 11.7477 8.01496 11.7478C8.01513 11.7479 8.01531 11.748 8.01551 11.748C8.01561 11.7481 8.01571 11.7481 8.01581 11.7481C8.01587 11.7482 8.01592 11.7482 8.01598 11.7482C8.016 11.7482 8.01605 11.7482 8.01606 11.7482C8.0161 11.7482 8.01614 11.7483 7.6841 12.6915C7.35205 13.6348 7.35209 13.6348 7.35213 13.6348C7.35215 13.6348 7.35219 13.6348 7.35222 13.6348C7.35228 13.6349 7.35234 13.6349 7.3524 13.6349C7.35252 13.6349 7.35265 13.635 7.35278 13.635C7.35304 13.6351 7.35332 13.6352 7.35361 13.6353C7.3542 13.6355 7.35485 13.6358 7.35557 13.636C7.35701 13.6365 7.35871 13.6371 7.36066 13.6378C7.36456 13.6391 7.36949 13.6408 7.3754 13.6428C7.38722 13.6468 7.40299 13.6521 7.42238 13.6583C7.46109 13.6709 7.51456 13.6876 7.57999 13.7065L8.1366 11.7856ZM8.18109 13.5593C8.22939 13.5316 8.27712 13.502 8.32406 13.4706L7.21015 11.8095C7.20281 11.8144 7.1951 11.8192 7.1871 11.8238L8.18109 13.5593ZM8.32412 13.4705C8.36929 13.4402 8.41352 13.4084 8.45697 13.375L7.2369 11.7902C7.22807 11.797 7.21921 11.8034 7.21009 11.8095L8.32412 13.4705ZM8.45664 13.3752C8.5009 13.3412 8.54216 13.307 8.58022 13.2739L7.26755 11.765C7.25531 11.7756 7.24524 11.7838 7.23722 11.79L8.45664 13.3752ZM8.58006 13.274C8.61986 13.2394 8.65795 13.2043 8.69448 13.1688L7.30113 11.734C7.28932 11.7455 7.2782 11.7557 7.2677 11.7648L8.58006 13.274ZM8.69448 13.1688C8.7676 13.0978 8.83568 13.0243 8.8989 12.9499L7.37512 11.6545C7.34944 11.6847 7.32466 11.7112 7.30113 11.734L8.69448 13.1688ZM8.89891 12.9499C8.96207 12.8756 9.02078 12.8 9.07542 12.7243L7.45369 11.5539C7.42706 11.5907 7.40084 11.6243 7.3751 11.6545L8.89891 12.9499ZM9.07542 12.7243C9.12988 12.6489 9.18098 12.5724 9.22871 12.4961L7.53306 11.4355C7.50703 11.4771 7.48047 11.5167 7.45368 11.5539L9.07542 12.7243ZM9.22872 12.4961C9.27667 12.4194 9.32094 12.3433 9.36189 12.2689L7.60982 11.3044C7.58439 11.3506 7.55886 11.3943 7.53305 11.4355L9.22872 12.4961ZM9.36188 12.2689C9.40282 12.1945 9.44152 12.12 9.47787 12.0459L7.68228 11.165C7.65948 11.2115 7.63528 11.2581 7.60983 11.3043L9.36188 12.2689ZM9.47788 12.0458C9.51408 11.972 9.54745 11.8998 9.5782 11.8301L7.74857 11.0224C7.72728 11.0706 7.70522 11.1183 7.68227 11.1651L9.47788 12.0458ZM9.5782 11.8301C9.60908 11.7602 9.63787 11.6915 9.66455 11.6249L7.80794 10.8813C7.78955 10.9272 7.76974 10.9744 7.74857 11.0224L9.5782 11.8301ZM9.66454 11.625C9.68356 11.5775 9.70074 11.5314 9.71152 11.5028L7.84064 10.7959C7.82553 10.8359 7.8176 10.8572 7.80795 10.8813L9.66454 11.625ZM8.41204 10.218C7.11229 10.726 5.54635 11.1268 4.14981 11.1485C2.73085 11.1706 1.71526 10.8063 1.16432 10.0605L-0.444351 11.2488C0.669345 12.7564 2.49262 13.1746 4.18096 13.1483C5.89171 13.1216 7.7015 12.643 9.14013 12.0807L8.41204 10.218ZM0.359985 10.6546C-0.523309 11.1234 -0.52309 11.1239 -0.522856 11.1243C-0.522759 11.1245 -0.522509 11.1249 -0.522313 11.1253C-0.521921 11.1261 -0.521468 11.1269 -0.520954 11.1279C-0.519926 11.1298 -0.518656 11.1321 -0.517144 11.1349C-0.51412 11.1405 -0.510127 11.1479 -0.50517 11.1569C-0.495257 11.175 -0.48148 11.1997 -0.463874 11.2307C-0.428675 11.2925 -0.378089 11.3791 -0.312404 11.4859C-0.181203 11.6993 0.0112203 11.9949 0.262671 12.3362C0.762498 13.0146 1.51123 13.8946 2.49445 14.6645C3.47849 15.435 4.72705 16.118 6.2166 16.3485C7.7215 16.5814 9.39766 16.3402 11.1955 15.3772L10.2511 13.6142C8.80802 14.3872 7.56831 14.5339 6.52243 14.372C5.4612 14.2078 4.52404 13.7136 3.72748 13.0898C2.9301 12.4654 2.30334 11.7342 1.87283 11.1499C1.65911 10.8598 1.49765 10.6113 1.39126 10.4383C1.33815 10.3519 1.29902 10.2848 1.27419 10.2412C1.26179 10.2194 1.25298 10.2035 1.24781 10.1941C1.24522 10.1894 1.24355 10.1863 1.24279 10.1849C1.24241 10.1842 1.24226 10.1839 1.24234 10.1841C1.24239 10.1841 1.24248 10.1843 1.24264 10.1846C1.24272 10.1847 1.24288 10.185 1.24292 10.1851C1.24309 10.1854 1.24328 10.1858 0.359985 10.6546ZM9.72329 14.4957V14.4957H11.7233V14.4957H9.72329Z" fill="#FF7000" mask="url(#path-2-inside-1_3_23)"/>
<path d="M23.1261 9.66508C23.1508 9.64064 23.1777 9.61897 23.1997 9.59131C23.2411 9.5393 23.278 9.48178 23.3106 9.41985C23.3433 9.35791 23.3719 9.29151 23.3966 9.22157C23.4214 9.15162 23.4424 9.07812 23.4601 9.00208C23.4779 8.92604 23.4922 8.84737 23.5037 8.76714C23.5153 8.68692 23.5239 8.60515 23.5301 8.52266C23.5425 8.35768 23.5452 8.19009 23.5415 8.0275C23.5377 7.86491 23.5275 7.70735 23.5144 7.56246C23.5013 7.41757 23.4852 7.28537 23.4697 7.17348C23.4385 6.94969 23.4092 6.80708 23.4092 6.80708C23.3366 6.82575 23.2506 6.8376 23.1534 6.84314C23.0561 6.84868 22.9475 6.84794 22.8295 6.84196C22.7116 6.83592 22.5843 6.82446 22.4495 6.80849C22.3147 6.79251 22.1725 6.77194 22.0248 6.74759C21.7293 6.6989 21.412 6.63505 21.0882 6.56249C20.7643 6.48994 20.4339 6.40875 20.1127 6.32513C19.7914 6.24152 19.4794 6.15558 19.1919 6.07368C18.9043 5.99179 18.6415 5.91386 18.4187 5.84647C17.9732 5.7117 17.6883 5.6188 17.6883 5.6188C17.6883 5.6188 18.3633 7.23581 22.3149 7.55071C22.3149 7.55071 23.4088 8.64487 23.1261 9.66514L23.1261 9.66508Z" fill="white"/>
<path d="M23.2082 0C22.4343 1.74776 22.87 2.8659 22.87 2.8659C22.87 2.8659 21.5675 3.58352 20.9184 4.80555C20.9184 4.80555 19.283 5.90071 17.6876 5.61776C17.6876 5.61776 17.9725 5.71065 18.418 5.84542C18.6407 5.9128 18.9036 5.99074 19.1911 6.07263C19.4786 6.15453 19.7907 6.24047 20.1119 6.32408C20.4332 6.4077 20.7636 6.48889 21.0874 6.56144C21.4113 6.63399 21.7286 6.69785 22.024 6.74655C22.1717 6.7709 22.314 6.79145 22.4488 6.80743C22.5835 6.82344 22.7108 6.83487 22.8288 6.84091C22.9468 6.84695 23.0554 6.84765 23.1527 6.84208C23.2499 6.83654 23.3358 6.8247 23.4085 6.80603C23.4085 6.80603 23.4378 6.94866 23.4689 7.17244C23.4845 7.28433 23.5005 7.41653 23.5136 7.56141C23.5267 7.7063 23.537 7.86385 23.5407 8.02644C23.5445 8.18904 23.5419 8.35662 23.5294 8.52161C23.5231 8.6041 23.5145 8.68587 23.503 8.76609C23.4915 8.84631 23.4771 8.92499 23.4594 9.00103C23.4416 9.07707 23.4207 9.15057 23.3959 9.22052C23.3711 9.29046 23.3425 9.35686 23.3099 9.4188C23.2772 9.48073 23.2404 9.53825 23.199 9.59027C23.177 9.61791 23.1501 9.6396 23.1254 9.66403C23.007 10.0912 22.6475 10.5054 21.865 10.821C21.865 10.821 19.4267 11.2611 17.5863 10.7627C17.5863 10.7627 15.4339 10.7638 14.8093 11.2995C14.8093 11.2995 12.7805 9.08384 10.3169 10.4386C9.88433 10.6766 9.35865 10.9218 8.77537 11.1498C8.76242 11.1841 8.74986 11.2178 8.73553 11.2536C8.71299 11.3098 8.68869 11.3678 8.66267 11.4267C8.63665 11.4857 8.60893 11.5456 8.57936 11.6059C8.54978 11.6662 8.51833 11.7268 8.48514 11.7871C8.45195 11.8474 8.41705 11.9073 8.38017 11.9663C8.34329 12.0252 8.30446 12.0833 8.26383 12.1396C8.22321 12.1958 8.18074 12.2504 8.13629 12.3027C8.09185 12.355 8.04541 12.405 7.99708 12.4519C7.97292 12.4754 7.94831 12.498 7.92316 12.5199C7.89802 12.5418 7.87236 12.5629 7.84621 12.5831C7.82007 12.6032 7.79353 12.6223 7.76639 12.6405C7.73925 12.6587 7.71153 12.6759 7.68338 12.692C7.68338 12.692 7.74853 12.7149 7.85758 12.7465C7.9121 12.7623 7.9776 12.7802 8.05147 12.7986C8.12533 12.817 8.20755 12.8359 8.29549 12.8535C8.38343 12.871 8.47702 12.8872 8.57375 12.9003C8.62212 12.9068 8.67126 12.9125 8.72083 12.9172C8.77041 12.922 8.82037 12.9257 8.87049 12.9283C8.92061 12.9309 8.97089 12.9323 9.0209 12.9322C9.07092 12.9321 9.12071 12.9305 9.16995 12.9274C9.2192 12.9242 9.26786 12.9194 9.31567 12.9127C9.36349 12.906 9.41052 12.8973 9.45624 12.8866C9.45624 12.8866 9.45176 12.9025 9.4361 12.9333C9.42826 12.9487 9.41772 12.9679 9.40338 12.9905C9.38904 13.0132 9.37098 13.0394 9.34839 13.0692C9.32581 13.0989 9.2987 13.132 9.26614 13.1685C9.23359 13.205 9.19558 13.245 9.15132 13.288C9.10707 13.3311 9.05647 13.3773 8.99879 13.4266C8.94111 13.4759 8.87638 13.5282 8.80354 13.5836C8.85089 13.5953 8.8969 13.609 8.94183 13.6243C8.98677 13.6396 9.03051 13.6565 9.07347 13.6748C9.11642 13.693 9.15854 13.7125 9.19995 13.7332C9.24136 13.7539 9.28205 13.7757 9.32234 13.7984C9.40292 13.8436 9.48174 13.8923 9.56046 13.9423C9.63918 13.9922 9.71779 14.0434 9.79812 14.0939C9.87845 14.1444 9.96053 14.1942 10.0459 14.2411C10.0886 14.2646 10.1322 14.2873 10.1768 14.3091C10.2214 14.3309 10.2671 14.3518 10.314 14.3714C10.361 14.391 10.4092 14.4093 10.459 14.4262C10.5088 14.4431 10.5601 14.4587 10.6131 14.4724C10.6484 14.4816 10.6857 14.4887 10.7226 14.4962C11.4352 14.1145 12.1792 13.6028 12.953 12.9363C12.953 12.9363 12.3806 15.3246 12.573 16.1882C12.7654 17.0518 10.7833 18.3737 10.5005 18.2828C10.5005 18.2828 9.93791 18.928 10.4093 20.621L10.9075 23.3305C10.9075 23.3305 11.1117 23.7006 11.3109 23.7712C11.5101 23.8418 12.937 24.0332 13.2915 23.9022C13.6461 23.7713 13.1495 23.3366 13.1495 23.3366C13.1495 23.3366 12.5262 23.0973 12.3491 22.8574C12.1719 22.6174 11.4199 20.1369 11.5378 19.2177C11.5378 19.2177 16.7503 19.0529 17.688 14.217L17.7589 14.1595C17.79 14.5275 17.8102 15.2942 17.5094 15.7995C17.5094 15.7995 20.5693 15.3853 22.3351 17.3227C22.3351 17.3227 21.8935 22.7085 21.9911 23.5307C21.9911 23.5307 22.1901 24.0776 24.2525 23.9123C24.2525 23.9123 24.8414 23.616 23.3044 23.1639C23.3044 23.1639 22.4618 20.0785 24.9743 16.8776C24.9743 16.8776 32.9275 11.3305 25.3028 3.8838L23.2082 0ZM22.9445 4.05768C23.109 4.05401 23.2928 4.08993 23.4936 4.18794C23.4936 4.18794 23.5704 4.81804 22.0144 4.5892C22.0144 4.5892 22.357 4.07081 22.9445 4.05768V4.05768ZM26.6278 15.9311C26.6278 15.9311 26.1032 16.7147 25.2405 17.1302C25.0448 17.2199 24.9656 17.4273 24.9656 17.4273C24.9656 17.4273 26.2015 22.5548 26.199 23.6461C26.7628 24.0581 27.882 24.0109 28.3948 23.9816C28.3948 23.9816 28.5001 23.8428 28.4031 23.6734C28.2722 23.4446 27.6722 23.3338 27.5384 23.2226C27.426 23.1292 26.4267 21.5022 26.6278 15.9312L26.6278 15.9311ZM18.392 16.1435C17.8667 16.1409 17.4913 16.1838 17.4883 16.1841C17.5144 16.2996 17.8011 18.0931 16.9276 19.1151C17.3216 19.9389 18.1349 22.8636 18.2864 23.3507C18.3961 23.7032 19.3942 23.7055 19.3942 23.7055C19.3942 23.7055 20.2144 23.7098 20.5888 23.7049C20.5888 23.7049 20.5968 23.3628 20.2444 23.2952C19.9004 23.2673 19.3496 22.7526 19.3496 22.7526C18.9984 22.3459 17.3951 19.6974 18.8071 18.809C20.0853 18.2047 20.5843 17.0463 20.6848 16.5738C19.9957 16.2269 19.0701 16.1471 18.392 16.1436V16.1435Z" fill="#FF7000"/>
<path d="M22.4109 4.62926C22.3568 4.62584 22.2666 4.61757 22.2104 4.61094C22.1542 4.60429 22.0903 4.5969 22.0685 4.59453C22.0466 4.59218 22.0287 4.58688 22.0287 4.58286C22.0287 4.55748 22.2058 4.37374 22.2988 4.30257C22.6456 4.03725 23.0421 3.99262 23.45 4.17304L23.4914 4.19133L23.4871 4.22731C23.4525 4.52009 23.0512 4.66995 22.4109 4.62927L22.4109 4.62926Z" fill="white"/>
<path d="M23.3079 1.13526L24.1036 2.73675C24.1036 2.73675 23.6967 2.50261 23.4894 2.58966C23.4894 2.58966 23.0908 2.1481 23.3079 1.13525L23.3079 1.13526Z" fill="white"/>
</svg>
