<svg width="25" height="24" viewBox="0 0 25 24" fill="none" xmlns="http://www.w3.org/2000/svg">
<path d="M22.7928 14.4697L20.5428 12.2197C20.4021 12.0791 20.2114 12.0002 20.0125 12.0002C19.8136 12.0002 19.6229 12.0791 19.4823 12.2197L12.5125 19.1895V22.5H15.823L22.7928 15.5303C22.9334 15.3896 23.0124 15.1989 23.0124 15C23.0124 14.8011 22.9334 14.6104 22.7928 14.4697ZM15.202 21H14.0125V19.8105L17.7625 16.0605L18.952 17.25L15.202 21ZM20.0125 16.1895L18.823 15L20.0125 13.8105L21.202 15L20.0125 16.1895Z" fill="#F5F5F5"/>
<path d="M15.5125 9.75V8.25H13.906C13.8362 7.98155 13.7289 7.72428 13.5873 7.48575L14.725 6.348L13.6645 5.2875L12.5268 6.42525C12.2882 6.28369 12.0309 6.17639 11.7625 6.1065V4.5H10.2625V6.1065C9.99408 6.17639 9.73681 6.28369 9.49826 6.42525L8.36051 5.2875L7.30001 6.348L8.43776 7.48575C8.29617 7.72428 8.18887 7.98155 8.11901 8.25H6.51251V9.75H8.11901C8.18887 10.0184 8.29617 10.2757 8.43776 10.5143L7.30001 11.652L8.36051 12.7125L9.49826 11.5747C9.73681 11.7163 9.99408 11.8236 10.2625 11.8935V13.5H11.7625V11.8935C12.0309 11.8236 12.2882 11.7163 12.5268 11.5747L13.6645 12.7125L14.725 11.652L13.5873 10.5143C13.7289 10.2757 13.8362 10.0184 13.906 9.75H15.5125ZM11.0125 10.5C10.7158 10.5 10.4258 10.412 10.1792 10.2472C9.93248 10.0824 9.74022 9.84811 9.62669 9.57402C9.51316 9.29994 9.48346 8.99834 9.54133 8.70736C9.59921 8.41639 9.74207 8.14912 9.95185 7.93934C10.1616 7.72956 10.4289 7.5867 10.7199 7.52882C11.0108 7.47094 11.3124 7.50065 11.5865 7.61418C11.8606 7.72771 12.0949 7.91997 12.2597 8.16664C12.4245 8.41332 12.5125 8.70333 12.5125 9C12.5121 9.3977 12.354 9.779 12.0727 10.0602C11.7915 10.3414 11.4102 10.4996 11.0125 10.5Z" fill="#F5F5F5"/>
<path d="M9.51251 22.5H5.01251C4.61481 22.4996 4.23351 22.3414 3.95229 22.0602C3.67107 21.779 3.51291 21.3977 3.51251 21V3C3.51291 2.6023 3.67107 2.221 3.95229 1.93978C4.23351 1.65856 4.61481 1.5004 5.01251 1.5H17.0125C17.4102 1.5004 17.7915 1.65856 18.0727 1.93978C18.354 2.221 18.5121 2.6023 18.5125 3V10.5H17.0125V3H5.01251V21H9.51251V22.5Z" fill="#F5F5F5"/>
</svg>
