<svg width="25" height="24" viewBox="0 0 25 24" fill="none" xmlns="http://www.w3.org/2000/svg">
<path d="M22.6664 18.005C22.6664 18.555 22.2204 19 21.6714 19H13.6614C13.3975 19 13.1444 18.8952 12.9578 18.7086C12.7712 18.522 12.6664 18.2689 12.6664 18.005C12.6664 17.7411 12.7712 17.488 12.9578 17.3014C13.1444 17.1148 13.3975 17.01 13.6614 17.01H21.6714C22.2214 17.01 22.6664 17.455 22.6664 18.005V18.005Z" fill="#246EB9"/>
<path d="M22.6664 12C22.6664 12.55 22.2204 12.995 21.6714 12.995H3.66138C3.39749 12.995 3.14441 12.8902 2.95781 12.7036C2.77121 12.517 2.66638 12.2639 2.66638 12C2.66638 11.7361 2.77121 11.483 2.95781 11.2964C3.14441 11.1098 3.39749 11.005 3.66138 11.005H21.6714C22.2214 11.005 22.6664 11.451 22.6664 12V12Z" fill="#246EB9"/>
<path d="M21.6714 6.99C21.9353 6.99 22.1884 6.88517 22.375 6.69857C22.5615 6.51197 22.6664 6.25889 22.6664 5.995C22.6664 5.73111 22.5615 5.47803 22.375 5.29143C22.1884 5.10483 21.9353 5 21.6714 5H9.66138C9.53072 5 9.40133 5.02574 9.28061 5.07574C9.15989 5.12574 9.0502 5.19903 8.95781 5.29143C8.86542 5.38382 8.79213 5.49351 8.74212 5.61423C8.69212 5.73495 8.66638 5.86433 8.66638 5.995C8.66638 6.12567 8.69212 6.25505 8.74212 6.37577C8.79213 6.49649 8.86542 6.60618 8.95781 6.69857C9.0502 6.79097 9.15989 6.86426 9.28061 6.91426C9.40133 6.96426 9.53072 6.99 9.66138 6.99H21.6714Z" fill="#246EB9"/>
</svg>
