<svg width="25" height="25" viewBox="0 0 25 25" fill="none" xmlns="http://www.w3.org/2000/svg">
<path d="M18.2217 22.5038C18.1325 22.551 18.14 22.566 18.2255 22.5225C18.2518 22.5117 18.276 22.4962 18.2967 22.4768C18.2967 22.461 18.2967 22.461 18.2217 22.5038V22.5038ZM18.4017 22.4063C18.359 22.4415 18.359 22.4415 18.41 22.4183C18.4288 22.4094 18.4461 22.3975 18.461 22.383C18.461 22.3628 18.449 22.3673 18.4017 22.4063V22.4063ZM18.5187 22.3358C18.476 22.371 18.476 22.371 18.527 22.3478C18.5459 22.3387 18.5632 22.3266 18.578 22.3118C18.578 22.293 18.566 22.2968 18.5187 22.3358ZM18.6372 22.266C18.5945 22.3013 18.5945 22.3013 18.644 22.2773C18.6717 22.2623 18.695 22.2465 18.695 22.242C18.695 22.2233 18.683 22.227 18.6372 22.266ZM18.797 22.1603C18.7152 22.215 18.6867 22.2503 18.7617 22.2113C18.812 22.1805 18.8975 22.113 18.8825 22.113C18.8502 22.125 18.8232 22.1453 18.7962 22.1603H18.797ZM11.6247 0.00825147C11.57 0.0120015 11.4057 0.0270015 11.2617 0.0390015C7.85074 0.348001 4.65949 2.184 2.63674 5.01225C1.51891 6.56344 0.792307 8.36168 0.518738 10.254C0.421988 10.914 0.409988 11.109 0.409988 12.0038C0.409988 12.8978 0.421988 13.0898 0.518738 13.7498C1.17199 18.258 4.37899 22.0425 8.72599 23.445C9.50824 23.6948 10.328 23.8673 11.2617 23.973C11.6247 24.012 13.1945 24.012 13.5575 23.973C15.1715 23.793 16.5342 23.3948 17.8827 22.707C18.0897 22.602 18.1287 22.5743 18.101 22.551C17.4432 21.6814 16.7909 20.8077 16.1442 19.9298L14.2265 17.34L11.8242 13.7813C11.0252 12.5897 10.2179 11.4037 9.40249 10.2233C9.39424 10.2233 9.38374 11.805 9.37924 13.734C9.37099 17.1128 9.37099 17.25 9.32824 17.328C9.28724 17.4222 9.21379 17.4986 9.12124 17.5433C9.04699 17.5785 8.98024 17.586 8.62549 17.586H8.21974L8.11399 17.52C8.04775 17.4775 7.99394 17.4183 7.95799 17.3483L7.90699 17.2425L7.91074 12.5393L7.91899 7.836L7.99324 7.74225C8.04066 7.68461 8.09903 7.63694 8.16499 7.602C8.26324 7.55475 8.30224 7.54725 8.70799 7.54725C9.18424 7.54725 9.26299 7.566 9.38824 7.70325C10.3614 9.15066 11.3262 10.6037 12.2825 12.0623C13.8417 14.4263 15.9702 17.652 17.0165 19.2345L18.9192 22.1138L19.013 22.0515C19.9274 21.4438 20.7561 20.7161 21.4767 19.8878C22.9884 18.1576 23.9693 16.0283 24.302 13.755C24.3987 13.095 24.4107 12.8993 24.4107 12.0053C24.4107 11.1105 24.3987 10.9193 24.302 10.2593C23.6487 5.751 20.4417 1.9665 16.0947 0.563251C15.2823 0.305942 14.4461 0.130815 13.5987 0.0405015C13.3715 0.0172515 11.8205 -0.0104985 11.6255 0.00975147L11.6247 0.00825147ZM16.535 7.266C16.5908 7.2934 16.6406 7.33166 16.6814 7.37854C16.7222 7.42542 16.7533 7.47997 16.7727 7.539C16.793 7.602 16.7967 8.90625 16.793 11.844L16.7847 16.062L16.043 14.922L15.2967 13.7813V10.719C15.2967 8.73375 15.305 7.62075 15.3155 7.566C15.3522 7.44046 15.4364 7.33419 15.5502 7.26975C15.6432 7.2225 15.6792 7.21875 16.0505 7.21875C16.3977 7.21875 16.4562 7.2225 16.5342 7.266H16.535Z" fill="black"/>
</svg>
