<svg width="25" height="24" viewBox="0 0 25 24" fill="none" xmlns="http://www.w3.org/2000/svg">
<path d="M12.41 22.5C12.1267 22.5001 11.8484 22.4256 11.603 22.284L9.03499 20.7637C8.65174 20.5492 8.83849 20.4735 8.96524 20.4292C9.37285 20.3033 9.76312 20.127 10.127 19.9042C10.1575 19.8902 10.191 19.8841 10.2245 19.8866C10.2579 19.8891 10.2902 19.9001 10.3182 19.9185L12.2915 21.0907C12.3282 21.1102 12.3692 21.1203 12.4107 21.1203C12.4523 21.1203 12.4933 21.1102 12.53 21.0907L20.225 16.6492C20.261 16.6277 20.2908 16.5971 20.3114 16.5606C20.3321 16.524 20.3429 16.4827 20.3427 16.4407V7.55625C20.3428 7.51361 20.3318 7.47168 20.3109 7.4345C20.29 7.39733 20.2599 7.36616 20.2235 7.344L12.5285 2.90625C12.4922 2.88581 12.4513 2.87508 12.4096 2.87508C12.368 2.87508 12.327 2.88581 12.2907 2.90625L4.60024 7.3455C4.56356 7.36719 4.5331 7.39799 4.51182 7.43492C4.49053 7.47184 4.47914 7.51363 4.47875 7.55625V16.437C4.47885 16.4789 4.49009 16.52 4.5113 16.5561C4.53252 16.5922 4.56296 16.622 4.59949 16.6425L6.70999 17.8605C7.85374 18.432 8.55425 17.7585 8.55425 17.082V8.31375C8.55425 8.25407 8.57795 8.19684 8.62015 8.15465C8.66234 8.11245 8.71957 8.08875 8.77925 8.08875H9.75424C9.81392 8.08875 9.87115 8.11245 9.91334 8.15465C9.95554 8.19684 9.97924 8.25407 9.97924 8.31375V17.0827C9.97924 18.609 9.14824 19.4827 7.70074 19.4827C7.07628 19.4936 6.4616 19.3266 5.92849 19.0012L3.90574 17.841C3.66019 17.698 3.45643 17.4931 3.31483 17.2467C3.17322 17.0004 3.09871 16.7212 3.09874 16.437V7.55625C3.09802 7.27164 3.17221 6.99186 3.31386 6.74502C3.45552 6.49817 3.65965 6.29296 3.90574 6.15L11.6015 1.707C11.8494 1.57137 12.1274 1.50029 12.41 1.50029C12.6926 1.50029 12.9706 1.57137 13.2185 1.707L20.9135 6.15C21.159 6.29272 21.3628 6.49734 21.5046 6.74344C21.6463 6.98953 21.721 7.2685 21.7212 7.5525V16.437C21.7208 16.7212 21.646 17.0003 21.5043 17.2466C21.3626 17.4929 21.1589 17.6978 20.9135 17.841L13.2185 22.284C12.9727 22.4258 12.6938 22.5003 12.41 22.5V22.5Z" fill="#83CD29"/>
<path d="M10.9505 13.4647C10.9505 13.4051 10.9742 13.3478 11.0164 13.3056C11.0586 13.2635 11.1158 13.2397 11.1755 13.2397H12.1707C12.2239 13.2399 12.2753 13.2589 12.3158 13.2934C12.3563 13.3278 12.3833 13.3755 12.392 13.428C12.542 14.4412 12.992 14.952 15.0267 14.952C16.6475 14.952 17.3382 14.5852 17.3382 13.725C17.3382 13.2292 17.1425 12.861 14.6232 12.6142C12.5172 12.4057 11.2152 11.9392 11.2152 10.2562C11.2152 8.70375 12.524 7.7775 14.7177 7.7775C17.183 7.7775 18.4032 8.63325 18.5577 10.4692C18.5601 10.4999 18.5561 10.5307 18.5461 10.5598C18.5361 10.5888 18.5203 10.6156 18.4995 10.6383C18.4788 10.661 18.4536 10.6792 18.4256 10.6918C18.3976 10.7044 18.3672 10.7111 18.3365 10.7115H17.3345C17.2842 10.7108 17.2356 10.6933 17.1965 10.6617C17.1573 10.6302 17.1299 10.5865 17.1185 10.5375C16.8792 9.47175 16.2935 9.13125 14.7185 9.13125C12.9485 9.13125 12.743 9.74775 12.743 10.2097C12.743 10.7692 12.986 10.9327 15.3755 11.2485C17.7402 11.5612 18.8637 12.0037 18.8637 13.6657C18.8637 15.3427 17.4657 16.3027 15.0275 16.3027C11.6562 16.3072 10.9505 14.7615 10.9505 13.4647V13.4647Z" fill="#83CD29"/>
</svg>
