<svg width="28" height="24" viewBox="0 0 28 24" fill="none" xmlns="http://www.w3.org/2000/svg">
<path d="M22.5674 7.77095C22.2806 7.67256 21.9914 7.5814 21.7 7.49758C21.749 7.29758 21.794 7.1 21.834 6.9059C22.4907 3.71842 22.0614 1.15053 20.5952 0.305053C19.1894 -0.505473 16.8903 0.339685 14.5684 2.36042C14.3396 2.55993 14.1159 2.76519 13.8974 2.976C13.7511 2.83582 13.6023 2.69836 13.451 2.56368C11.0175 0.403053 8.57834 -0.507578 7.11371 0.340317C5.70918 1.15337 5.29329 3.56737 5.88444 6.58821C5.94326 6.88739 6.00966 7.18503 6.0836 7.48084C5.73834 7.57895 5.40518 7.68337 5.08634 7.79453C2.23329 8.78926 0.411285 10.3481 0.411285 11.9651C0.411285 13.6351 2.36729 15.3101 5.33886 16.3258C5.57978 16.4078 5.82269 16.4838 6.06739 16.5537C5.98792 16.8723 5.91737 17.193 5.85581 17.5156C5.29223 20.484 5.73234 22.8409 7.13307 23.6488C8.57981 24.4832 11.008 23.6257 13.3723 21.5588C13.5641 21.3908 13.7516 21.218 13.9347 21.0406C14.1712 21.2689 14.4141 21.4905 14.6631 21.7053C16.9534 23.676 19.2153 24.4718 20.6147 23.6617C22.06 22.8249 22.5298 20.2929 21.9199 17.2124C21.8719 16.9711 21.818 16.7309 21.7583 16.4922C21.9289 16.4417 22.0962 16.3897 22.2594 16.3356C25.3487 15.3121 27.3587 13.6574 27.3587 11.9651C27.3587 10.3422 25.4778 8.77284 22.5674 7.77095V7.77095ZM21.8974 15.2429C21.75 15.2917 21.5989 15.3387 21.4448 15.3845C21.1037 14.3048 20.6435 13.1568 20.0802 11.9706C20.6177 10.8127 21.0602 9.67937 21.3917 8.60674C21.6674 8.68653 21.9349 8.77063 22.1928 8.85937C24.6864 9.7179 26.2075 10.9871 26.2075 11.9651C26.2075 13.0067 24.5648 14.3591 21.8974 15.2429V15.2429ZM20.7907 17.436C21.0603 18.7981 21.0988 20.0297 20.9201 20.9925C20.7597 21.8577 20.437 22.4344 20.0378 22.6655C19.1887 23.1571 17.3725 22.5181 15.4139 20.8326C15.1824 20.633 14.9564 20.4269 14.7363 20.2147C15.4957 19.3843 16.2545 18.4189 16.9952 17.3467C18.2979 17.2312 19.5287 17.0421 20.6448 16.7841C20.6997 17.0059 20.7485 17.2234 20.7907 17.436V17.436ZM9.59823 22.5805C8.76855 22.8735 8.10771 22.8819 7.70823 22.6516C6.85823 22.1614 6.50486 20.2688 6.98686 17.7303C7.04416 17.4303 7.10976 17.132 7.1836 16.8357C8.28739 17.0799 9.50918 17.2555 10.815 17.3614C11.5607 18.4105 12.3414 19.3748 13.1282 20.2193C12.961 20.3811 12.7898 20.5387 12.6149 20.6921C11.5693 21.606 10.5216 22.2544 9.59823 22.5805V22.5805ZM5.71129 15.2365C4.39729 14.7874 3.31213 14.2037 2.56834 13.5667C1.89992 12.9944 1.56255 12.4261 1.56255 11.9651C1.56255 10.9838 3.02539 9.73221 5.46529 8.88158C5.76139 8.77842 6.07129 8.68105 6.39286 8.58968C6.73013 9.68653 7.17244 10.8334 7.70623 11.9931C7.1655 13.1699 6.71686 14.3351 6.37634 15.4448C6.15298 15.3809 5.93123 15.3114 5.71129 15.2365V15.2365ZM7.01423 6.36705C6.50781 3.77895 6.84413 1.82663 7.69055 1.33663C8.59202 0.814738 10.5855 1.55884 12.6867 3.42453C12.8237 3.54646 12.9585 3.67087 13.091 3.79768C12.308 4.63842 11.5344 5.59558 10.7954 6.63853C9.52802 6.756 8.31486 6.94463 7.1995 7.19737C7.13078 6.92223 7.069 6.64541 7.01423 6.36716V6.36705ZM18.6381 9.23737C18.3747 8.78231 18.1015 8.33298 17.8187 7.88969C18.6784 7.99842 19.5022 8.14274 20.2758 8.31916C20.0436 9.06358 19.7541 9.84179 19.4134 10.6397C19.1643 10.1671 18.9059 9.6996 18.6381 9.23737V9.23737ZM13.8979 4.62042C14.4289 5.19568 14.9607 5.8379 15.4837 6.53474C14.4227 6.48463 13.3598 6.48442 12.2988 6.53411C12.8223 5.84368 13.3587 5.20232 13.8979 4.62042ZM9.12729 9.24526C8.8629 9.70377 8.60925 10.1684 8.36655 10.6387C8.03139 9.84368 7.74455 9.0619 7.51034 8.30695C8.27918 8.13495 9.09908 7.99432 9.95339 7.88758C9.66743 8.33358 9.39199 8.78623 9.12729 9.24516V9.24526ZM9.97792 16.1244C9.09529 16.0259 8.26308 15.8925 7.49444 15.7252C7.73234 14.9567 8.0255 14.1583 8.36792 13.3462C8.61158 13.8169 8.86629 14.2818 9.13181 14.7405C9.40486 15.2121 9.6876 15.674 9.97792 16.1244ZM13.9297 19.3907C13.384 18.8021 12.8398 18.1508 12.3083 17.4504C12.8243 17.4706 13.3503 17.4809 13.885 17.4809C14.4342 17.4809 14.9772 17.4686 15.5116 17.4448C14.9869 18.1579 14.4571 18.8101 13.9297 19.3907ZM19.4242 13.3047C19.7844 14.1258 20.088 14.92 20.3291 15.6753C19.5478 15.8536 18.7042 15.9972 17.8154 16.1038C18.1002 15.6523 18.376 15.1951 18.6427 14.7326C18.9137 14.2625 19.1743 13.7864 19.4242 13.3047V13.3047ZM17.6455 14.1575C17.2373 14.8666 16.8062 15.5622 16.3528 16.2433C15.5315 16.3014 14.7083 16.3303 13.885 16.3299C13.0463 16.3299 12.2307 16.3038 11.4452 16.2528C10.9799 15.5734 10.5406 14.8765 10.128 14.1638H10.1281C9.71752 13.4549 9.33398 12.7306 8.97834 11.9925C9.33307 11.2543 9.71545 10.5297 10.1247 9.82021L10.1245 9.82032C10.5336 9.11066 10.9695 8.41679 11.4312 7.74021C12.2325 7.67958 13.0543 7.648 13.8849 7.648H13.885C14.7193 7.648 15.5421 7.6799 16.3433 7.74095C16.8003 8.41651 17.2334 9.10799 17.6417 9.81411C18.0523 10.522 18.4397 11.2431 18.8034 11.9762C18.4434 12.7168 18.0572 13.4444 17.6455 14.1575V14.1575ZM20.0202 1.30232C20.9225 1.82274 21.2735 3.92137 20.7065 6.67347C20.6703 6.84905 20.6297 7.0279 20.5855 7.20926C19.4674 6.95116 18.2534 6.75926 16.9823 6.64C16.2419 5.58558 15.4747 4.62695 14.7044 3.79705C14.9063 3.60248 15.113 3.41294 15.3242 3.22863C17.3137 1.49737 19.1731 0.81379 20.0202 1.30232V1.30232ZM13.885 9.55874C15.2139 9.55874 16.2913 10.6361 16.2913 11.9651C16.2913 13.294 15.2139 14.3714 13.885 14.3714C12.556 14.3714 11.4787 13.294 11.4787 11.9651C11.4787 10.6361 12.556 9.55874 13.885 9.55874V9.55874Z" fill="#00D8FF"/>
</svg>
