<svg width="40" height="24" viewBox="0 0 40 24" fill="none" xmlns="http://www.w3.org/2000/svg">
<path d="M19.95 0C14.6306 0 11.3058 2.65979 9.97597 7.97922C11.9708 5.31943 14.298 4.32203 16.9578 4.98701C18.4752 5.36634 19.5599 6.46738 20.7605 7.68592C22.7164 9.67122 24.9799 11.9688 29.924 11.9688C35.2435 11.9688 38.5682 9.30904 39.8981 3.98961C37.9032 6.6494 35.576 7.6468 32.9162 6.98182C31.3988 6.60249 30.3141 5.50145 29.1135 4.28291C27.1576 2.29761 24.8942 0 19.95 0ZM9.97597 11.9688C4.65655 11.9688 1.33177 14.6286 0.00194855 19.9481C1.99675 17.2883 4.32397 16.2909 6.98377 16.9558C8.50122 17.3352 9.5859 18.4362 10.7865 19.6548C12.7424 21.6401 15.0058 23.9377 19.95 23.9377C25.2694 23.9377 28.5942 21.2779 29.924 15.9584C27.9292 18.6182 25.602 19.6156 22.9422 18.9506C21.4248 18.5713 20.3401 17.4703 19.1395 16.2517C17.1836 14.2664 14.9201 11.9688 9.97597 11.9688Z" fill="url(#paint0_linear_3_193)"/>
<defs>
<linearGradient id="paint0_linear_3_193" x1="-1.10637" y1="7.66005" x2="33.3504" y2="27.5272" gradientUnits="userSpaceOnUse">
<stop stop-color="#2298BD"/>
<stop offset="1" stop-color="#0ED7B5"/>
</linearGradient>
</defs>
</svg>
