<svg width="25" height="24" viewBox="0 0 25 24" fill="none" xmlns="http://www.w3.org/2000/svg">
<path d="M22.6575 3.7725L18.333 1.6905C18.0888 1.57275 17.814 1.53389 17.5467 1.57931C17.2794 1.62473 17.0329 1.75218 16.8412 1.944L2.685 14.85C2.51324 15.0058 2.41043 15.2235 2.39918 15.4552C2.38793 15.6869 2.46916 15.9135 2.625 16.0852C2.64375 16.1055 2.6625 16.125 2.68275 16.143L3.8385 17.193C3.98952 17.3304 4.18392 17.4107 4.38792 17.4197C4.59193 17.4287 4.79266 17.366 4.95525 17.2425L22.0065 4.3125C22.1353 4.21477 22.2888 4.15493 22.4498 4.13971C22.6107 4.1245 22.7727 4.15451 22.9176 4.22638C23.0624 4.29824 23.1843 4.40911 23.2695 4.54649C23.3547 4.68388 23.3999 4.84232 23.4 5.004V4.95375C23.4 4.70692 23.3303 4.46512 23.1989 4.25615C23.0676 4.04718 22.8799 3.87953 22.6575 3.7725V3.7725Z" fill="#0065A9"/>
<path d="M22.6575 20.2275L18.333 22.3103C18.0887 22.4277 17.814 22.4663 17.5468 22.4209C17.2796 22.3755 17.033 22.2483 16.8412 22.0568L2.685 9.15C2.51324 8.99415 2.41043 8.77646 2.39918 8.5448C2.38793 8.31315 2.46916 8.08651 2.625 7.91475C2.64375 7.8945 2.6625 7.875 2.68275 7.857L3.8385 6.807C3.98968 6.66897 4.18452 6.58841 4.38903 6.57936C4.59353 6.57031 4.79473 6.63336 4.9575 6.7575L22.0065 19.6875C22.1353 19.7852 22.2888 19.8451 22.4498 19.8603C22.6107 19.8755 22.7727 19.8455 22.9176 19.7736C23.0624 19.7018 23.1843 19.5909 23.2695 19.4535C23.3547 19.3161 23.3999 19.1577 23.4 18.996V19.05C23.3992 19.2962 23.3291 19.5371 23.1978 19.7454C23.0665 19.9536 22.8793 20.1207 22.6575 20.2275V20.2275Z" fill="#007ACC"/>
<path d="M18.333 22.3102C18.0887 22.4277 17.814 22.4663 17.5468 22.4209C17.2796 22.3755 17.033 22.2483 16.8412 22.0568C16.949 22.163 17.0856 22.2352 17.2342 22.2641C17.3827 22.2931 17.5365 22.2776 17.6762 22.2195C17.816 22.1615 17.9355 22.0634 18.0197 21.9378C18.104 21.8121 18.1493 21.6643 18.15 21.513V2.487C18.1501 2.33497 18.1051 2.18632 18.0207 2.05988C17.9363 1.93344 17.8162 1.83491 17.6757 1.77676C17.5353 1.71861 17.3807 1.70346 17.2316 1.73324C17.0825 1.76301 16.9456 1.83636 16.8382 1.944C17.0299 1.75226 17.2764 1.6248 17.5436 1.57925C17.8109 1.5337 18.0857 1.57231 18.33 1.68975L22.6537 3.76875C22.8769 3.87525 23.0653 4.04267 23.1974 4.25168C23.3294 4.46069 23.3996 4.70277 23.4 4.95V19.05C23.4001 19.297 23.3303 19.5391 23.1988 19.7482C23.0673 19.9573 22.8794 20.125 22.6568 20.232L18.333 22.3102Z" fill="#1F9CF0"/>
</svg>
