<svg width="25" height="24" viewBox="0 0 25 24" fill="none" xmlns="http://www.w3.org/2000/svg">
<g clip-path="url(#clip0_4_44)">
<path d="M3.90705 6.09799C4.53372 5.65999 5.47838 5.74399 6.04105 6.20866L5.39572 5.27066C4.87638 4.52999 5.06238 3.72866 5.80372 3.20866C6.54505 2.69066 8.64572 4.08333 8.64572 4.08333C8.12172 3.33533 8.21972 2.38733 8.96772 1.86266C9.71572 1.33999 10.7477 1.52066 11.2717 2.26999L18.2184 12.0833L17.3331 20.6667L9.94438 17.972L3.49972 8.41667C2.97105 7.664 3.15372 6.62599 3.90705 6.09799Z" fill="#EF9645"/>
<path d="M2.46307 11.5573C2.46307 11.5573 1.7084 10.4573 2.80907 9.70333C3.9084 8.94933 4.6624 10.0487 4.6624 10.0487L8.16307 15.154C8.28373 14.9527 8.41573 14.754 8.56307 14.558L3.7044 7.47333C3.7044 7.47333 2.9504 6.37401 4.0504 5.62001C5.14973 4.86601 5.90373 5.96535 5.90373 5.96535L10.4737 12.63C10.6437 12.4913 10.8177 12.352 10.9971 12.2153L5.69907 4.48801C5.69907 4.48801 4.94507 3.38868 6.04507 2.63468C7.1444 1.88068 7.8984 2.98001 7.8984 2.98001L13.1964 10.706C13.3911 10.5867 13.5837 10.4833 13.7771 10.374L8.82507 3.15268C8.82507 3.15268 8.07107 2.05335 9.1704 1.29935C10.2697 0.545345 11.0237 1.64468 11.0237 1.64468L16.2597 9.28067L17.0557 10.442C13.7571 12.7047 13.4431 16.9613 15.3277 19.71C15.7044 20.26 16.2544 19.8833 16.2544 19.8833C13.9924 16.584 14.6831 12.8767 17.9824 10.6147L17.0097 5.74668C17.0097 5.74668 16.6464 4.46401 17.9284 4.10001C19.2111 3.73668 19.5751 5.01935 19.5751 5.01935L20.6984 8.35533C21.1437 9.678 21.6177 10.996 22.2451 12.2427C24.0164 15.7627 22.9584 20.1373 19.6184 22.4287C15.9751 24.9267 10.9944 23.998 8.49573 20.3553L2.46307 11.5573Z" fill="#FFDC5D"/>
<path d="M8.66641 21.3613C5.99974 21.3613 3.30507 18.6667 3.30507 16C3.30507 15.6313 3.03507 15.3333 2.66641 15.3333C2.29774 15.3333 1.97174 15.6313 1.97174 16C1.97174 20 4.66641 22.6947 8.66641 22.6947C9.03507 22.6947 9.33307 22.3687 9.33307 22C9.33307 21.6313 9.03507 21.3613 8.66641 21.3613Z" fill="#5DADEC"/>
<path d="M5.33305 22.6667C3.33305 22.6667 1.99972 21.3333 1.99972 19.3333C1.99972 18.9647 1.70172 18.6667 1.33305 18.6667C0.964382 18.6667 0.666382 18.9647 0.666382 19.3333C0.666382 22 2.66638 24 5.33305 24C5.70171 24 5.99971 23.702 5.99971 23.3333C5.99971 22.9647 5.70171 22.6667 5.33305 22.6667ZM16.6664 1.33333C16.2984 1.33333 15.9997 1.632 15.9997 2C15.9997 2.368 16.2984 2.66667 16.6664 2.66667C19.333 2.66667 21.9997 5.05933 21.9997 8C21.9997 8.368 22.2984 8.66666 22.6664 8.66666C23.0344 8.66666 23.333 8.368 23.333 8C23.333 4.324 20.6664 1.33333 16.6664 1.33333Z" fill="#5DADEC"/>
<path d="M19.9997 0.0279961C19.6317 0.0279961 19.3331 0.298663 19.3331 0.666663C19.3331 1.03466 19.6317 1.36133 19.9997 1.36133C21.9997 1.36133 23.3051 2.84466 23.3051 4.66666C23.3051 5.03466 23.6311 5.33333 23.9997 5.33333C24.3684 5.33333 24.6384 5.03466 24.6384 4.66666C24.6384 2.10866 22.6664 0.0279961 19.9997 0.0279961Z" fill="#5DADEC"/>
</g>
<defs>
<clipPath id="clip0_4_44">
<rect width="24" height="24" fill="white" transform="translate(0.666382)"/>
</clipPath>
</defs>
</svg>
